G04 #@! TF.GenerationSoftware,KiCad,Pcbnew,(5.1.5)-3*
G04 #@! TF.CreationDate,2020-04-12T20:05:31+01:00*
G04 #@! TF.ProjectId,LM317 regulator breakout board,4c4d3331-3720-4726-9567-756c61746f72,rev?*
G04 #@! TF.SameCoordinates,Original*
G04 #@! TF.FileFunction,Soldermask,Bot*
G04 #@! TF.FilePolarity,Negative*
%FSLAX46Y46*%
G04 Gerber Fmt 4.6, Leading zero omitted, Abs format (unit mm)*
G04 Created by KiCad (PCBNEW (5.1.5)-3) date 2020-04-12 20:05:31*
%MOMM*%
%LPD*%
G04 APERTURE LIST*
%ADD10C,0.100000*%
G04 APERTURE END LIST*
D10*
G36*
X155771719Y-113898520D02*
G01*
X155960880Y-113955901D01*
X155960883Y-113955902D01*
X156053333Y-114005318D01*
X156135212Y-114049083D01*
X156288015Y-114174485D01*
X156413417Y-114327288D01*
X156506599Y-114501619D01*
X156563980Y-114690780D01*
X156578500Y-114838206D01*
X156578500Y-115031793D01*
X156563980Y-115179219D01*
X156508600Y-115361782D01*
X156506598Y-115368383D01*
X156457182Y-115460833D01*
X156413417Y-115542712D01*
X156288015Y-115695515D01*
X156135212Y-115820917D01*
X155960881Y-115914099D01*
X155771720Y-115971480D01*
X155575000Y-115990855D01*
X155378281Y-115971480D01*
X155189120Y-115914099D01*
X155014788Y-115820917D01*
X154861985Y-115695515D01*
X154736583Y-115542712D01*
X154643401Y-115368381D01*
X154586020Y-115179220D01*
X154571500Y-115031794D01*
X154571500Y-114838207D01*
X154586020Y-114690781D01*
X154643401Y-114501620D01*
X154643402Y-114501617D01*
X154692818Y-114409167D01*
X154736583Y-114327288D01*
X154861985Y-114174485D01*
X155014788Y-114049083D01*
X155189119Y-113955901D01*
X155378280Y-113898520D01*
X155575000Y-113879145D01*
X155771719Y-113898520D01*
G37*
G36*
X158311719Y-113898520D02*
G01*
X158500880Y-113955901D01*
X158500883Y-113955902D01*
X158593333Y-114005318D01*
X158675212Y-114049083D01*
X158828015Y-114174485D01*
X158953417Y-114327288D01*
X159046599Y-114501619D01*
X159103980Y-114690780D01*
X159118500Y-114838206D01*
X159118500Y-115031793D01*
X159103980Y-115179219D01*
X159048600Y-115361782D01*
X159046598Y-115368383D01*
X158997182Y-115460833D01*
X158953417Y-115542712D01*
X158828015Y-115695515D01*
X158675212Y-115820917D01*
X158500881Y-115914099D01*
X158311720Y-115971480D01*
X158115000Y-115990855D01*
X157918281Y-115971480D01*
X157729120Y-115914099D01*
X157554788Y-115820917D01*
X157401985Y-115695515D01*
X157276583Y-115542712D01*
X157183401Y-115368381D01*
X157126020Y-115179220D01*
X157111500Y-115031794D01*
X157111500Y-114838207D01*
X157126020Y-114690781D01*
X157183401Y-114501620D01*
X157183402Y-114501617D01*
X157232818Y-114409167D01*
X157276583Y-114327288D01*
X157401985Y-114174485D01*
X157554788Y-114049083D01*
X157729119Y-113955901D01*
X157918280Y-113898520D01*
X158115000Y-113879145D01*
X158311719Y-113898520D01*
G37*
G36*
X154038500Y-115986000D02*
G01*
X152031500Y-115986000D01*
X152031500Y-113884000D01*
X154038500Y-113884000D01*
X154038500Y-115986000D01*
G37*
G36*
X169176000Y-115836000D02*
G01*
X167374000Y-115836000D01*
X167374000Y-114034000D01*
X169176000Y-114034000D01*
X169176000Y-115836000D01*
G37*
G36*
X170928512Y-114038927D02*
G01*
X171077812Y-114068624D01*
X171241784Y-114136544D01*
X171389354Y-114235147D01*
X171514853Y-114360646D01*
X171613456Y-114508216D01*
X171681376Y-114672188D01*
X171711073Y-114821488D01*
X171716000Y-114846258D01*
X171716000Y-115023742D01*
X171714398Y-115031794D01*
X171681376Y-115197812D01*
X171613456Y-115361784D01*
X171514853Y-115509354D01*
X171389354Y-115634853D01*
X171241784Y-115733456D01*
X171077812Y-115801376D01*
X170928512Y-115831073D01*
X170903742Y-115836000D01*
X170726258Y-115836000D01*
X170701488Y-115831073D01*
X170552188Y-115801376D01*
X170388216Y-115733456D01*
X170240646Y-115634853D01*
X170115147Y-115509354D01*
X170016544Y-115361784D01*
X169948624Y-115197812D01*
X169915602Y-115031794D01*
X169914000Y-115023742D01*
X169914000Y-114846258D01*
X169918927Y-114821488D01*
X169948624Y-114672188D01*
X170016544Y-114508216D01*
X170115147Y-114360646D01*
X170240646Y-114235147D01*
X170388216Y-114136544D01*
X170552188Y-114068624D01*
X170701488Y-114038927D01*
X170726258Y-114034000D01*
X170903742Y-114034000D01*
X170928512Y-114038927D01*
G37*
G36*
X171666000Y-109436000D02*
G01*
X169964000Y-109436000D01*
X169964000Y-107734000D01*
X171666000Y-107734000D01*
X171666000Y-109436000D01*
G37*
G36*
X173063228Y-107766703D02*
G01*
X173218100Y-107830853D01*
X173357481Y-107923985D01*
X173476015Y-108042519D01*
X173569147Y-108181900D01*
X173633297Y-108336772D01*
X173666000Y-108501184D01*
X173666000Y-108668816D01*
X173633297Y-108833228D01*
X173569147Y-108988100D01*
X173476015Y-109127481D01*
X173357481Y-109246015D01*
X173218100Y-109339147D01*
X173063228Y-109403297D01*
X172898816Y-109436000D01*
X172731184Y-109436000D01*
X172566772Y-109403297D01*
X172411900Y-109339147D01*
X172272519Y-109246015D01*
X172153985Y-109127481D01*
X172060853Y-108988100D01*
X171996703Y-108833228D01*
X171964000Y-108668816D01*
X171964000Y-108501184D01*
X171996703Y-108336772D01*
X172060853Y-108181900D01*
X172153985Y-108042519D01*
X172272519Y-107923985D01*
X172411900Y-107830853D01*
X172566772Y-107766703D01*
X172731184Y-107734000D01*
X172898816Y-107734000D01*
X173063228Y-107766703D01*
G37*
G36*
X165300935Y-106440742D02*
G01*
X165451258Y-106503008D01*
X165586545Y-106593404D01*
X165701596Y-106708455D01*
X165791992Y-106843742D01*
X165854258Y-106994065D01*
X165886000Y-107153646D01*
X165886000Y-107316354D01*
X165854258Y-107475935D01*
X165791992Y-107626258D01*
X165701596Y-107761545D01*
X165586545Y-107876596D01*
X165451258Y-107966992D01*
X165300935Y-108029258D01*
X165141354Y-108061000D01*
X164978646Y-108061000D01*
X164819065Y-108029258D01*
X164668742Y-107966992D01*
X164533455Y-107876596D01*
X164418404Y-107761545D01*
X164328008Y-107626258D01*
X164265742Y-107475935D01*
X164234000Y-107316354D01*
X164234000Y-107153646D01*
X164265742Y-106994065D01*
X164328008Y-106843742D01*
X164418404Y-106708455D01*
X164533455Y-106593404D01*
X164668742Y-106503008D01*
X164819065Y-106440742D01*
X164978646Y-106409000D01*
X165141354Y-106409000D01*
X165300935Y-106440742D01*
G37*
G36*
X173063228Y-101416703D02*
G01*
X173218100Y-101480853D01*
X173357481Y-101573985D01*
X173476015Y-101692519D01*
X173569147Y-101831900D01*
X173633297Y-101986772D01*
X173666000Y-102151184D01*
X173666000Y-102318816D01*
X173633297Y-102483228D01*
X173569147Y-102638100D01*
X173476015Y-102777481D01*
X173357481Y-102896015D01*
X173218100Y-102989147D01*
X173063228Y-103053297D01*
X172898816Y-103086000D01*
X172731184Y-103086000D01*
X172566772Y-103053297D01*
X172411900Y-102989147D01*
X172272519Y-102896015D01*
X172153985Y-102777481D01*
X172060853Y-102638100D01*
X171996703Y-102483228D01*
X171964000Y-102318816D01*
X171964000Y-102151184D01*
X171996703Y-101986772D01*
X172060853Y-101831900D01*
X172153985Y-101692519D01*
X172272519Y-101573985D01*
X172411900Y-101480853D01*
X172566772Y-101416703D01*
X172731184Y-101384000D01*
X172898816Y-101384000D01*
X173063228Y-101416703D01*
G37*
G36*
X171666000Y-103086000D02*
G01*
X169964000Y-103086000D01*
X169964000Y-101384000D01*
X171666000Y-101384000D01*
X171666000Y-103086000D01*
G37*
G36*
X167800935Y-101440742D02*
G01*
X167951258Y-101503008D01*
X168086545Y-101593404D01*
X168201596Y-101708455D01*
X168291992Y-101843742D01*
X168354258Y-101994065D01*
X168386000Y-102153646D01*
X168386000Y-102316354D01*
X168354258Y-102475935D01*
X168291992Y-102626258D01*
X168201596Y-102761545D01*
X168086545Y-102876596D01*
X167951258Y-102966992D01*
X167800935Y-103029258D01*
X167641354Y-103061000D01*
X167478646Y-103061000D01*
X167319065Y-103029258D01*
X167168742Y-102966992D01*
X167033455Y-102876596D01*
X166918404Y-102761545D01*
X166828008Y-102626258D01*
X166765742Y-102475935D01*
X166734000Y-102316354D01*
X166734000Y-102153646D01*
X166765742Y-101994065D01*
X166828008Y-101843742D01*
X166918404Y-101708455D01*
X167033455Y-101593404D01*
X167168742Y-101503008D01*
X167319065Y-101440742D01*
X167478646Y-101409000D01*
X167641354Y-101409000D01*
X167800935Y-101440742D01*
G37*
G36*
X163386000Y-103061000D02*
G01*
X161734000Y-103061000D01*
X161734000Y-101409000D01*
X163386000Y-101409000D01*
X163386000Y-103061000D01*
G37*
G36*
X156100331Y-96543211D02*
G01*
X156428092Y-96678974D01*
X156723070Y-96876072D01*
X156973928Y-97126930D01*
X157171026Y-97421908D01*
X157306789Y-97749669D01*
X157376000Y-98097616D01*
X157376000Y-98452384D01*
X157306789Y-98800331D01*
X157171026Y-99128092D01*
X156973928Y-99423070D01*
X156723070Y-99673928D01*
X156428092Y-99871026D01*
X156100331Y-100006789D01*
X155752384Y-100076000D01*
X155397616Y-100076000D01*
X155049669Y-100006789D01*
X154721908Y-99871026D01*
X154426930Y-99673928D01*
X154176072Y-99423070D01*
X153978974Y-99128092D01*
X153843211Y-98800331D01*
X153774000Y-98452384D01*
X153774000Y-98097616D01*
X153843211Y-97749669D01*
X153978974Y-97421908D01*
X154176072Y-97126930D01*
X154426930Y-96876072D01*
X154721908Y-96678974D01*
X155049669Y-96543211D01*
X155397616Y-96474000D01*
X155752384Y-96474000D01*
X156100331Y-96543211D01*
G37*
G36*
X162144059Y-97702860D02*
G01*
X162280732Y-97759472D01*
X162403735Y-97841660D01*
X162508340Y-97946265D01*
X162590528Y-98069268D01*
X162647140Y-98205941D01*
X162676000Y-98351033D01*
X162676000Y-98498967D01*
X162647140Y-98644059D01*
X162590528Y-98780732D01*
X162508340Y-98903735D01*
X162403735Y-99008340D01*
X162280732Y-99090528D01*
X162280731Y-99090529D01*
X162280730Y-99090529D01*
X162144059Y-99147140D01*
X161998968Y-99176000D01*
X161851032Y-99176000D01*
X161705941Y-99147140D01*
X161569270Y-99090529D01*
X161569269Y-99090529D01*
X161569268Y-99090528D01*
X161446265Y-99008340D01*
X161341660Y-98903735D01*
X161259472Y-98780732D01*
X161202860Y-98644059D01*
X161174000Y-98498967D01*
X161174000Y-98351033D01*
X161202860Y-98205941D01*
X161259472Y-98069268D01*
X161341660Y-97946265D01*
X161446265Y-97841660D01*
X161569268Y-97759472D01*
X161705941Y-97702860D01*
X161851032Y-97674000D01*
X161998968Y-97674000D01*
X162144059Y-97702860D01*
G37*
G36*
X169658512Y-94988927D02*
G01*
X169807812Y-95018624D01*
X169971784Y-95086544D01*
X170119354Y-95185147D01*
X170244853Y-95310646D01*
X170343456Y-95458216D01*
X170411376Y-95622188D01*
X170446000Y-95796259D01*
X170446000Y-95973741D01*
X170411376Y-96147812D01*
X170343456Y-96311784D01*
X170244853Y-96459354D01*
X170119354Y-96584853D01*
X169971784Y-96683456D01*
X169807812Y-96751376D01*
X169658512Y-96781073D01*
X169633742Y-96786000D01*
X169456258Y-96786000D01*
X169431488Y-96781073D01*
X169282188Y-96751376D01*
X169118216Y-96683456D01*
X168970646Y-96584853D01*
X168845147Y-96459354D01*
X168746544Y-96311784D01*
X168678624Y-96147812D01*
X168644000Y-95973741D01*
X168644000Y-95796259D01*
X168678624Y-95622188D01*
X168746544Y-95458216D01*
X168845147Y-95310646D01*
X168970646Y-95185147D01*
X169118216Y-95086544D01*
X169282188Y-95018624D01*
X169431488Y-94988927D01*
X169456258Y-94984000D01*
X169633742Y-94984000D01*
X169658512Y-94988927D01*
G37*
G36*
X167906000Y-96786000D02*
G01*
X166104000Y-96786000D01*
X166104000Y-94984000D01*
X167906000Y-94984000D01*
X167906000Y-96786000D01*
G37*
G36*
X162144059Y-95162860D02*
G01*
X162197865Y-95185147D01*
X162280732Y-95219472D01*
X162403735Y-95301660D01*
X162508340Y-95406265D01*
X162543054Y-95458218D01*
X162590529Y-95529270D01*
X162647140Y-95665941D01*
X162676000Y-95811032D01*
X162676000Y-95958968D01*
X162673061Y-95973742D01*
X162647140Y-96104059D01*
X162590528Y-96240732D01*
X162508340Y-96363735D01*
X162403735Y-96468340D01*
X162280732Y-96550528D01*
X162280731Y-96550529D01*
X162280730Y-96550529D01*
X162144059Y-96607140D01*
X161998968Y-96636000D01*
X161851032Y-96636000D01*
X161705941Y-96607140D01*
X161569270Y-96550529D01*
X161569269Y-96550529D01*
X161569268Y-96550528D01*
X161446265Y-96468340D01*
X161341660Y-96363735D01*
X161259472Y-96240732D01*
X161202860Y-96104059D01*
X161176939Y-95973742D01*
X161174000Y-95958968D01*
X161174000Y-95811032D01*
X161202860Y-95665941D01*
X161259471Y-95529270D01*
X161306946Y-95458218D01*
X161341660Y-95406265D01*
X161446265Y-95301660D01*
X161569268Y-95219472D01*
X161652136Y-95185147D01*
X161705941Y-95162860D01*
X161851032Y-95134000D01*
X161998968Y-95134000D01*
X162144059Y-95162860D01*
G37*
M02*
