G04 #@! TF.GenerationSoftware,KiCad,Pcbnew,(5.1.5)-3*
G04 #@! TF.CreationDate,2020-04-12T20:05:31+01:00*
G04 #@! TF.ProjectId,LM317 regulator breakout board,4c4d3331-3720-4726-9567-756c61746f72,rev?*
G04 #@! TF.SameCoordinates,Original*
G04 #@! TF.FileFunction,Copper,L1,Top*
G04 #@! TF.FilePolarity,Positive*
%FSLAX46Y46*%
G04 Gerber Fmt 4.6, Leading zero omitted, Abs format (unit mm)*
G04 Created by KiCad (PCBNEW (5.1.5)-3) date 2020-04-12 20:05:31*
%MOMM*%
%LPD*%
G04 APERTURE LIST*
%ADD10O,1.905000X2.000000*%
%ADD11R,1.905000X2.000000*%
%ADD12C,1.550000*%
%ADD13R,1.550000X1.550000*%
%ADD14O,1.400000X1.400000*%
%ADD15C,1.400000*%
%ADD16O,1.700000X1.700000*%
%ADD17R,1.700000X1.700000*%
%ADD18C,1.600000*%
%ADD19R,1.600000X1.600000*%
%ADD20C,0.500000*%
G04 APERTURE END LIST*
D10*
X158115000Y-114935000D03*
X155575000Y-114935000D03*
D11*
X153035000Y-114935000D03*
D12*
X165060000Y-107235000D03*
D13*
X162560000Y-102235000D03*
D12*
X167560000Y-102235000D03*
D14*
X161925000Y-98425000D03*
D15*
X161925000Y-95885000D03*
D16*
X169545000Y-95885000D03*
D17*
X167005000Y-95885000D03*
D16*
X170815000Y-114935000D03*
D17*
X168275000Y-114935000D03*
D18*
X172815000Y-102235000D03*
D19*
X170815000Y-102235000D03*
D18*
X172815000Y-108585000D03*
D19*
X170815000Y-108585000D03*
D20*
X168275000Y-109825000D02*
X169515000Y-108585000D01*
X169515000Y-108585000D02*
X170815000Y-108585000D01*
X168275000Y-114935000D02*
X168275000Y-109825000D01*
X168275000Y-114935000D02*
X158115000Y-114935000D01*
X167005000Y-95885000D02*
X161925000Y-95885000D01*
X170815000Y-99695000D02*
X167005000Y-95885000D01*
X170815000Y-102235000D02*
X170815000Y-99695000D01*
X155575000Y-113435000D02*
X158520000Y-110490000D01*
X155575000Y-114935000D02*
X155575000Y-113435000D01*
X158520000Y-110490000D02*
X165100000Y-110490000D01*
X170815000Y-104775000D02*
X170815000Y-102235000D01*
X165100000Y-110490000D02*
X170815000Y-104775000D01*
X161285000Y-102235000D02*
X162560000Y-102235000D01*
X153035000Y-110485000D02*
X161285000Y-102235000D01*
X153035000Y-114935000D02*
X153035000Y-110485000D01*
X161925000Y-101600000D02*
X162560000Y-102235000D01*
X161925000Y-98425000D02*
X161925000Y-101600000D01*
X162560000Y-104735000D02*
X165060000Y-107235000D01*
X162560000Y-102235000D02*
X162560000Y-104735000D01*
M02*
