G04 #@! TF.GenerationSoftware,KiCad,Pcbnew,(5.1.5)-3*
G04 #@! TF.CreationDate,2020-04-12T20:05:31+01:00*
G04 #@! TF.ProjectId,LM317 regulator breakout board,4c4d3331-3720-4726-9567-756c61746f72,rev?*
G04 #@! TF.SameCoordinates,Original*
G04 #@! TF.FileFunction,Legend,Top*
G04 #@! TF.FilePolarity,Positive*
%FSLAX46Y46*%
G04 Gerber Fmt 4.6, Leading zero omitted, Abs format (unit mm)*
G04 Created by KiCad (PCBNEW (5.1.5)-3) date 2020-04-12 20:05:31*
%MOMM*%
%LPD*%
G04 APERTURE LIST*
%ADD10C,0.120000*%
%ADD11C,0.150000*%
G04 APERTURE END LIST*
D10*
X158115000Y-111245000D02*
X158115000Y-113785000D01*
X155575000Y-111245000D02*
X155575000Y-113785000D01*
X153035000Y-111245000D02*
X153035000Y-113785000D01*
X160695000Y-95355000D02*
X160695000Y-111245000D01*
X150455000Y-95355000D02*
X150455000Y-111245000D01*
X150455000Y-95355000D02*
X160695000Y-95355000D01*
X150455000Y-111245000D02*
X160695000Y-111245000D01*
X161850000Y-100825000D02*
X163270000Y-100825000D01*
X163270000Y-101025000D02*
X166850000Y-101025000D01*
X166850000Y-101025000D02*
X166850000Y-100825000D01*
X166850000Y-100825000D02*
X168270000Y-100825000D01*
X168270000Y-100825000D02*
X168270000Y-101025000D01*
X164550000Y-108045000D02*
X163060000Y-108045000D01*
X161750000Y-106735000D02*
X161750000Y-103195000D01*
X168370000Y-102755000D02*
X168370000Y-106735000D01*
X167060000Y-108045000D02*
X165570000Y-108045000D01*
X163060000Y-108045000D02*
G75*
G02X161750000Y-106735000I0J1310000D01*
G01*
X168370000Y-106735000D02*
G75*
G02X167060000Y-108045000I-1310000J0D01*
G01*
X163270000Y-101025000D02*
X163270000Y-100825000D01*
X161850000Y-100825000D02*
X161850000Y-101025000D01*
X161850000Y-101025000D02*
X161750000Y-101025000D01*
X161750000Y-101025000D02*
X161750000Y-101275000D01*
X168270000Y-101025000D02*
X168370000Y-101025000D01*
X168370000Y-101025000D02*
X168370000Y-101715000D01*
X161925000Y-96805000D02*
X161925000Y-97425000D01*
X162845000Y-95885000D02*
G75*
G03X162845000Y-95885000I-920000J0D01*
G01*
X165675000Y-97215000D02*
X165675000Y-95885000D01*
X167005000Y-97215000D02*
X165675000Y-97215000D01*
X168275000Y-97215000D02*
X168275000Y-94555000D01*
X168275000Y-94555000D02*
X170875000Y-94555000D01*
X168275000Y-97215000D02*
X170875000Y-97215000D01*
X170875000Y-97215000D02*
X170875000Y-94555000D01*
X166945000Y-116265000D02*
X166945000Y-114935000D01*
X168275000Y-116265000D02*
X166945000Y-116265000D01*
X169545000Y-116265000D02*
X169545000Y-113605000D01*
X169545000Y-113605000D02*
X172145000Y-113605000D01*
X169545000Y-116265000D02*
X172145000Y-116265000D01*
X172145000Y-116265000D02*
X172145000Y-113605000D01*
X169260225Y-100510000D02*
X169260225Y-101010000D01*
X169010225Y-100760000D02*
X169510225Y-100760000D01*
X174416000Y-101951000D02*
X174416000Y-102519000D01*
X174376000Y-101717000D02*
X174376000Y-102753000D01*
X174336000Y-101558000D02*
X174336000Y-102912000D01*
X174296000Y-101430000D02*
X174296000Y-103040000D01*
X174256000Y-101320000D02*
X174256000Y-103150000D01*
X174216000Y-101224000D02*
X174216000Y-103246000D01*
X174176000Y-101137000D02*
X174176000Y-103333000D01*
X174136000Y-101057000D02*
X174136000Y-103413000D01*
X174096000Y-100984000D02*
X174096000Y-103486000D01*
X174056000Y-100916000D02*
X174056000Y-103554000D01*
X174016000Y-100852000D02*
X174016000Y-103618000D01*
X173976000Y-100792000D02*
X173976000Y-103678000D01*
X173936000Y-100735000D02*
X173936000Y-103735000D01*
X173896000Y-100681000D02*
X173896000Y-103789000D01*
X173856000Y-100630000D02*
X173856000Y-103840000D01*
X173816000Y-103275000D02*
X173816000Y-103888000D01*
X173816000Y-100582000D02*
X173816000Y-101195000D01*
X173776000Y-103275000D02*
X173776000Y-103934000D01*
X173776000Y-100536000D02*
X173776000Y-101195000D01*
X173736000Y-103275000D02*
X173736000Y-103978000D01*
X173736000Y-100492000D02*
X173736000Y-101195000D01*
X173696000Y-103275000D02*
X173696000Y-104020000D01*
X173696000Y-100450000D02*
X173696000Y-101195000D01*
X173656000Y-103275000D02*
X173656000Y-104061000D01*
X173656000Y-100409000D02*
X173656000Y-101195000D01*
X173616000Y-103275000D02*
X173616000Y-104099000D01*
X173616000Y-100371000D02*
X173616000Y-101195000D01*
X173576000Y-103275000D02*
X173576000Y-104136000D01*
X173576000Y-100334000D02*
X173576000Y-101195000D01*
X173536000Y-103275000D02*
X173536000Y-104172000D01*
X173536000Y-100298000D02*
X173536000Y-101195000D01*
X173496000Y-103275000D02*
X173496000Y-104206000D01*
X173496000Y-100264000D02*
X173496000Y-101195000D01*
X173456000Y-103275000D02*
X173456000Y-104239000D01*
X173456000Y-100231000D02*
X173456000Y-101195000D01*
X173416000Y-103275000D02*
X173416000Y-104270000D01*
X173416000Y-100200000D02*
X173416000Y-101195000D01*
X173376000Y-103275000D02*
X173376000Y-104300000D01*
X173376000Y-100170000D02*
X173376000Y-101195000D01*
X173336000Y-103275000D02*
X173336000Y-104330000D01*
X173336000Y-100140000D02*
X173336000Y-101195000D01*
X173296000Y-103275000D02*
X173296000Y-104357000D01*
X173296000Y-100113000D02*
X173296000Y-101195000D01*
X173256000Y-103275000D02*
X173256000Y-104384000D01*
X173256000Y-100086000D02*
X173256000Y-101195000D01*
X173216000Y-103275000D02*
X173216000Y-104410000D01*
X173216000Y-100060000D02*
X173216000Y-101195000D01*
X173176000Y-103275000D02*
X173176000Y-104435000D01*
X173176000Y-100035000D02*
X173176000Y-101195000D01*
X173136000Y-103275000D02*
X173136000Y-104459000D01*
X173136000Y-100011000D02*
X173136000Y-101195000D01*
X173096000Y-103275000D02*
X173096000Y-104482000D01*
X173096000Y-99988000D02*
X173096000Y-101195000D01*
X173056000Y-103275000D02*
X173056000Y-104503000D01*
X173056000Y-99967000D02*
X173056000Y-101195000D01*
X173016000Y-103275000D02*
X173016000Y-104525000D01*
X173016000Y-99945000D02*
X173016000Y-101195000D01*
X172976000Y-103275000D02*
X172976000Y-104545000D01*
X172976000Y-99925000D02*
X172976000Y-101195000D01*
X172936000Y-103275000D02*
X172936000Y-104564000D01*
X172936000Y-99906000D02*
X172936000Y-101195000D01*
X172896000Y-103275000D02*
X172896000Y-104583000D01*
X172896000Y-99887000D02*
X172896000Y-101195000D01*
X172856000Y-103275000D02*
X172856000Y-104600000D01*
X172856000Y-99870000D02*
X172856000Y-101195000D01*
X172816000Y-103275000D02*
X172816000Y-104617000D01*
X172816000Y-99853000D02*
X172816000Y-101195000D01*
X172776000Y-103275000D02*
X172776000Y-104633000D01*
X172776000Y-99837000D02*
X172776000Y-101195000D01*
X172736000Y-103275000D02*
X172736000Y-104649000D01*
X172736000Y-99821000D02*
X172736000Y-101195000D01*
X172696000Y-103275000D02*
X172696000Y-104663000D01*
X172696000Y-99807000D02*
X172696000Y-101195000D01*
X172656000Y-103275000D02*
X172656000Y-104677000D01*
X172656000Y-99793000D02*
X172656000Y-101195000D01*
X172616000Y-103275000D02*
X172616000Y-104690000D01*
X172616000Y-99780000D02*
X172616000Y-101195000D01*
X172576000Y-103275000D02*
X172576000Y-104703000D01*
X172576000Y-99767000D02*
X172576000Y-101195000D01*
X172536000Y-103275000D02*
X172536000Y-104715000D01*
X172536000Y-99755000D02*
X172536000Y-101195000D01*
X172495000Y-103275000D02*
X172495000Y-104726000D01*
X172495000Y-99744000D02*
X172495000Y-101195000D01*
X172455000Y-103275000D02*
X172455000Y-104736000D01*
X172455000Y-99734000D02*
X172455000Y-101195000D01*
X172415000Y-103275000D02*
X172415000Y-104746000D01*
X172415000Y-99724000D02*
X172415000Y-101195000D01*
X172375000Y-103275000D02*
X172375000Y-104755000D01*
X172375000Y-99715000D02*
X172375000Y-101195000D01*
X172335000Y-103275000D02*
X172335000Y-104763000D01*
X172335000Y-99707000D02*
X172335000Y-101195000D01*
X172295000Y-103275000D02*
X172295000Y-104771000D01*
X172295000Y-99699000D02*
X172295000Y-101195000D01*
X172255000Y-103275000D02*
X172255000Y-104778000D01*
X172255000Y-99692000D02*
X172255000Y-101195000D01*
X172215000Y-103275000D02*
X172215000Y-104785000D01*
X172215000Y-99685000D02*
X172215000Y-101195000D01*
X172175000Y-103275000D02*
X172175000Y-104791000D01*
X172175000Y-99679000D02*
X172175000Y-101195000D01*
X172135000Y-103275000D02*
X172135000Y-104796000D01*
X172135000Y-99674000D02*
X172135000Y-101195000D01*
X172095000Y-103275000D02*
X172095000Y-104800000D01*
X172095000Y-99670000D02*
X172095000Y-101195000D01*
X172055000Y-103275000D02*
X172055000Y-104804000D01*
X172055000Y-99666000D02*
X172055000Y-101195000D01*
X172015000Y-103275000D02*
X172015000Y-104808000D01*
X172015000Y-99662000D02*
X172015000Y-101195000D01*
X171975000Y-103275000D02*
X171975000Y-104811000D01*
X171975000Y-99659000D02*
X171975000Y-101195000D01*
X171935000Y-103275000D02*
X171935000Y-104813000D01*
X171935000Y-99657000D02*
X171935000Y-101195000D01*
X171895000Y-103275000D02*
X171895000Y-104814000D01*
X171895000Y-99656000D02*
X171895000Y-101195000D01*
X171855000Y-99655000D02*
X171855000Y-101195000D01*
X171855000Y-103275000D02*
X171855000Y-104815000D01*
X171815000Y-99655000D02*
X171815000Y-101195000D01*
X171815000Y-103275000D02*
X171815000Y-104815000D01*
X174435000Y-102235000D02*
G75*
G03X174435000Y-102235000I-2620000J0D01*
G01*
X169260225Y-106860000D02*
X169260225Y-107360000D01*
X169010225Y-107110000D02*
X169510225Y-107110000D01*
X174416000Y-108301000D02*
X174416000Y-108869000D01*
X174376000Y-108067000D02*
X174376000Y-109103000D01*
X174336000Y-107908000D02*
X174336000Y-109262000D01*
X174296000Y-107780000D02*
X174296000Y-109390000D01*
X174256000Y-107670000D02*
X174256000Y-109500000D01*
X174216000Y-107574000D02*
X174216000Y-109596000D01*
X174176000Y-107487000D02*
X174176000Y-109683000D01*
X174136000Y-107407000D02*
X174136000Y-109763000D01*
X174096000Y-107334000D02*
X174096000Y-109836000D01*
X174056000Y-107266000D02*
X174056000Y-109904000D01*
X174016000Y-107202000D02*
X174016000Y-109968000D01*
X173976000Y-107142000D02*
X173976000Y-110028000D01*
X173936000Y-107085000D02*
X173936000Y-110085000D01*
X173896000Y-107031000D02*
X173896000Y-110139000D01*
X173856000Y-106980000D02*
X173856000Y-110190000D01*
X173816000Y-109625000D02*
X173816000Y-110238000D01*
X173816000Y-106932000D02*
X173816000Y-107545000D01*
X173776000Y-109625000D02*
X173776000Y-110284000D01*
X173776000Y-106886000D02*
X173776000Y-107545000D01*
X173736000Y-109625000D02*
X173736000Y-110328000D01*
X173736000Y-106842000D02*
X173736000Y-107545000D01*
X173696000Y-109625000D02*
X173696000Y-110370000D01*
X173696000Y-106800000D02*
X173696000Y-107545000D01*
X173656000Y-109625000D02*
X173656000Y-110411000D01*
X173656000Y-106759000D02*
X173656000Y-107545000D01*
X173616000Y-109625000D02*
X173616000Y-110449000D01*
X173616000Y-106721000D02*
X173616000Y-107545000D01*
X173576000Y-109625000D02*
X173576000Y-110486000D01*
X173576000Y-106684000D02*
X173576000Y-107545000D01*
X173536000Y-109625000D02*
X173536000Y-110522000D01*
X173536000Y-106648000D02*
X173536000Y-107545000D01*
X173496000Y-109625000D02*
X173496000Y-110556000D01*
X173496000Y-106614000D02*
X173496000Y-107545000D01*
X173456000Y-109625000D02*
X173456000Y-110589000D01*
X173456000Y-106581000D02*
X173456000Y-107545000D01*
X173416000Y-109625000D02*
X173416000Y-110620000D01*
X173416000Y-106550000D02*
X173416000Y-107545000D01*
X173376000Y-109625000D02*
X173376000Y-110650000D01*
X173376000Y-106520000D02*
X173376000Y-107545000D01*
X173336000Y-109625000D02*
X173336000Y-110680000D01*
X173336000Y-106490000D02*
X173336000Y-107545000D01*
X173296000Y-109625000D02*
X173296000Y-110707000D01*
X173296000Y-106463000D02*
X173296000Y-107545000D01*
X173256000Y-109625000D02*
X173256000Y-110734000D01*
X173256000Y-106436000D02*
X173256000Y-107545000D01*
X173216000Y-109625000D02*
X173216000Y-110760000D01*
X173216000Y-106410000D02*
X173216000Y-107545000D01*
X173176000Y-109625000D02*
X173176000Y-110785000D01*
X173176000Y-106385000D02*
X173176000Y-107545000D01*
X173136000Y-109625000D02*
X173136000Y-110809000D01*
X173136000Y-106361000D02*
X173136000Y-107545000D01*
X173096000Y-109625000D02*
X173096000Y-110832000D01*
X173096000Y-106338000D02*
X173096000Y-107545000D01*
X173056000Y-109625000D02*
X173056000Y-110853000D01*
X173056000Y-106317000D02*
X173056000Y-107545000D01*
X173016000Y-109625000D02*
X173016000Y-110875000D01*
X173016000Y-106295000D02*
X173016000Y-107545000D01*
X172976000Y-109625000D02*
X172976000Y-110895000D01*
X172976000Y-106275000D02*
X172976000Y-107545000D01*
X172936000Y-109625000D02*
X172936000Y-110914000D01*
X172936000Y-106256000D02*
X172936000Y-107545000D01*
X172896000Y-109625000D02*
X172896000Y-110933000D01*
X172896000Y-106237000D02*
X172896000Y-107545000D01*
X172856000Y-109625000D02*
X172856000Y-110950000D01*
X172856000Y-106220000D02*
X172856000Y-107545000D01*
X172816000Y-109625000D02*
X172816000Y-110967000D01*
X172816000Y-106203000D02*
X172816000Y-107545000D01*
X172776000Y-109625000D02*
X172776000Y-110983000D01*
X172776000Y-106187000D02*
X172776000Y-107545000D01*
X172736000Y-109625000D02*
X172736000Y-110999000D01*
X172736000Y-106171000D02*
X172736000Y-107545000D01*
X172696000Y-109625000D02*
X172696000Y-111013000D01*
X172696000Y-106157000D02*
X172696000Y-107545000D01*
X172656000Y-109625000D02*
X172656000Y-111027000D01*
X172656000Y-106143000D02*
X172656000Y-107545000D01*
X172616000Y-109625000D02*
X172616000Y-111040000D01*
X172616000Y-106130000D02*
X172616000Y-107545000D01*
X172576000Y-109625000D02*
X172576000Y-111053000D01*
X172576000Y-106117000D02*
X172576000Y-107545000D01*
X172536000Y-109625000D02*
X172536000Y-111065000D01*
X172536000Y-106105000D02*
X172536000Y-107545000D01*
X172495000Y-109625000D02*
X172495000Y-111076000D01*
X172495000Y-106094000D02*
X172495000Y-107545000D01*
X172455000Y-109625000D02*
X172455000Y-111086000D01*
X172455000Y-106084000D02*
X172455000Y-107545000D01*
X172415000Y-109625000D02*
X172415000Y-111096000D01*
X172415000Y-106074000D02*
X172415000Y-107545000D01*
X172375000Y-109625000D02*
X172375000Y-111105000D01*
X172375000Y-106065000D02*
X172375000Y-107545000D01*
X172335000Y-109625000D02*
X172335000Y-111113000D01*
X172335000Y-106057000D02*
X172335000Y-107545000D01*
X172295000Y-109625000D02*
X172295000Y-111121000D01*
X172295000Y-106049000D02*
X172295000Y-107545000D01*
X172255000Y-109625000D02*
X172255000Y-111128000D01*
X172255000Y-106042000D02*
X172255000Y-107545000D01*
X172215000Y-109625000D02*
X172215000Y-111135000D01*
X172215000Y-106035000D02*
X172215000Y-107545000D01*
X172175000Y-109625000D02*
X172175000Y-111141000D01*
X172175000Y-106029000D02*
X172175000Y-107545000D01*
X172135000Y-109625000D02*
X172135000Y-111146000D01*
X172135000Y-106024000D02*
X172135000Y-107545000D01*
X172095000Y-109625000D02*
X172095000Y-111150000D01*
X172095000Y-106020000D02*
X172095000Y-107545000D01*
X172055000Y-109625000D02*
X172055000Y-111154000D01*
X172055000Y-106016000D02*
X172055000Y-107545000D01*
X172015000Y-109625000D02*
X172015000Y-111158000D01*
X172015000Y-106012000D02*
X172015000Y-107545000D01*
X171975000Y-109625000D02*
X171975000Y-111161000D01*
X171975000Y-106009000D02*
X171975000Y-107545000D01*
X171935000Y-109625000D02*
X171935000Y-111163000D01*
X171935000Y-106007000D02*
X171935000Y-107545000D01*
X171895000Y-109625000D02*
X171895000Y-111164000D01*
X171895000Y-106006000D02*
X171895000Y-107545000D01*
X171855000Y-106005000D02*
X171855000Y-107545000D01*
X171855000Y-109625000D02*
X171855000Y-111165000D01*
X171815000Y-106005000D02*
X171815000Y-107545000D01*
X171815000Y-109625000D02*
X171815000Y-111165000D01*
X174435000Y-108585000D02*
G75*
G03X174435000Y-108585000I-2620000J0D01*
G01*
D11*
X154813095Y-93807380D02*
X154813095Y-94616904D01*
X154860714Y-94712142D01*
X154908333Y-94759761D01*
X155003571Y-94807380D01*
X155194047Y-94807380D01*
X155289285Y-94759761D01*
X155336904Y-94712142D01*
X155384523Y-94616904D01*
X155384523Y-93807380D01*
X156384523Y-94807380D02*
X155813095Y-94807380D01*
X156098809Y-94807380D02*
X156098809Y-93807380D01*
X156003571Y-93950238D01*
X155908333Y-94045476D01*
X155813095Y-94093095D01*
X164564761Y-100187380D02*
X164231428Y-99711190D01*
X163993333Y-100187380D02*
X163993333Y-99187380D01*
X164374285Y-99187380D01*
X164469523Y-99235000D01*
X164517142Y-99282619D01*
X164564761Y-99377857D01*
X164564761Y-99520714D01*
X164517142Y-99615952D01*
X164469523Y-99663571D01*
X164374285Y-99711190D01*
X163993333Y-99711190D01*
X164850476Y-99187380D02*
X165183809Y-100187380D01*
X165517142Y-99187380D01*
X166374285Y-100187380D02*
X165802857Y-100187380D01*
X166088571Y-100187380D02*
X166088571Y-99187380D01*
X165993333Y-99330238D01*
X165898095Y-99425476D01*
X165802857Y-99473095D01*
X164297380Y-97321666D02*
X163821190Y-97655000D01*
X164297380Y-97893095D02*
X163297380Y-97893095D01*
X163297380Y-97512142D01*
X163345000Y-97416904D01*
X163392619Y-97369285D01*
X163487857Y-97321666D01*
X163630714Y-97321666D01*
X163725952Y-97369285D01*
X163773571Y-97416904D01*
X163821190Y-97512142D01*
X163821190Y-97893095D01*
X164297380Y-96369285D02*
X164297380Y-96940714D01*
X164297380Y-96655000D02*
X163297380Y-96655000D01*
X163440238Y-96750238D01*
X163535476Y-96845476D01*
X163583095Y-96940714D01*
X164127380Y-96218333D02*
X164841666Y-96218333D01*
X164984523Y-96265952D01*
X165079761Y-96361190D01*
X165127380Y-96504047D01*
X165127380Y-96599285D01*
X164222619Y-95789761D02*
X164175000Y-95742142D01*
X164127380Y-95646904D01*
X164127380Y-95408809D01*
X164175000Y-95313571D01*
X164222619Y-95265952D01*
X164317857Y-95218333D01*
X164413095Y-95218333D01*
X164555952Y-95265952D01*
X165127380Y-95837380D01*
X165127380Y-95218333D01*
X165397380Y-115268333D02*
X166111666Y-115268333D01*
X166254523Y-115315952D01*
X166349761Y-115411190D01*
X166397380Y-115554047D01*
X166397380Y-115649285D01*
X166397380Y-114268333D02*
X166397380Y-114839761D01*
X166397380Y-114554047D02*
X165397380Y-114554047D01*
X165540238Y-114649285D01*
X165635476Y-114744523D01*
X165683095Y-114839761D01*
X171648333Y-98842142D02*
X171600714Y-98889761D01*
X171457857Y-98937380D01*
X171362619Y-98937380D01*
X171219761Y-98889761D01*
X171124523Y-98794523D01*
X171076904Y-98699285D01*
X171029285Y-98508809D01*
X171029285Y-98365952D01*
X171076904Y-98175476D01*
X171124523Y-98080238D01*
X171219761Y-97985000D01*
X171362619Y-97937380D01*
X171457857Y-97937380D01*
X171600714Y-97985000D01*
X171648333Y-98032619D01*
X172029285Y-98032619D02*
X172076904Y-97985000D01*
X172172142Y-97937380D01*
X172410238Y-97937380D01*
X172505476Y-97985000D01*
X172553095Y-98032619D01*
X172600714Y-98127857D01*
X172600714Y-98223095D01*
X172553095Y-98365952D01*
X171981666Y-98937380D01*
X172600714Y-98937380D01*
X171648333Y-105192142D02*
X171600714Y-105239761D01*
X171457857Y-105287380D01*
X171362619Y-105287380D01*
X171219761Y-105239761D01*
X171124523Y-105144523D01*
X171076904Y-105049285D01*
X171029285Y-104858809D01*
X171029285Y-104715952D01*
X171076904Y-104525476D01*
X171124523Y-104430238D01*
X171219761Y-104335000D01*
X171362619Y-104287380D01*
X171457857Y-104287380D01*
X171600714Y-104335000D01*
X171648333Y-104382619D01*
X172600714Y-105287380D02*
X172029285Y-105287380D01*
X172315000Y-105287380D02*
X172315000Y-104287380D01*
X172219761Y-104430238D01*
X172124523Y-104525476D01*
X172029285Y-104573095D01*
M02*
