G04 #@! TF.GenerationSoftware,KiCad,Pcbnew,(5.1.5)-3*
G04 #@! TF.CreationDate,2020-06-03T21:28:16+01:00*
G04 #@! TF.ProjectId,LM317 SMD Regulator baord,4c4d3331-3720-4534-9d44-20526567756c,rev?*
G04 #@! TF.SameCoordinates,Original*
G04 #@! TF.FileFunction,Legend,Top*
G04 #@! TF.FilePolarity,Positive*
%FSLAX46Y46*%
G04 Gerber Fmt 4.6, Leading zero omitted, Abs format (unit mm)*
G04 Created by KiCad (PCBNEW (5.1.5)-3) date 2020-06-03 21:28:16*
%MOMM*%
%LPD*%
G04 APERTURE LIST*
%ADD10C,0.120000*%
%ADD11C,0.150000*%
G04 APERTURE END LIST*
D10*
X107080000Y-84745000D02*
X107080000Y-78735000D01*
X113900000Y-82495000D02*
X113900000Y-78735000D01*
X107080000Y-78735000D02*
X108340000Y-78735000D01*
X113900000Y-78735000D02*
X112640000Y-78735000D01*
X122385000Y-81110000D02*
X117645000Y-81110000D01*
X122385000Y-76370000D02*
X117645000Y-76370000D01*
X117645000Y-79980000D02*
X117645000Y-81110000D01*
X117645000Y-76370000D02*
X117645000Y-77500000D01*
X122385000Y-78481000D02*
X122385000Y-79000000D01*
X122385000Y-76370000D02*
X122385000Y-76701000D01*
X122385000Y-80780000D02*
X122385000Y-81110000D01*
X102795000Y-83228922D02*
X102795000Y-83746078D01*
X104215000Y-83228922D02*
X104215000Y-83746078D01*
X125535000Y-79675000D02*
X126135000Y-79375000D01*
X125535000Y-79075000D02*
X125535000Y-79675000D01*
X126135000Y-79375000D02*
X125535000Y-79075000D01*
X129225000Y-82195000D02*
X129225000Y-81875000D01*
X132645000Y-82195000D02*
X129225000Y-82195000D01*
X132725000Y-81875000D02*
X132645000Y-82195000D01*
X132645000Y-81555000D02*
X132725000Y-81875000D01*
X129225000Y-81555000D02*
X132645000Y-81555000D01*
X129225000Y-81875000D02*
X129225000Y-81555000D01*
X128225000Y-80545000D02*
X128225000Y-80705000D01*
X129225000Y-79695000D02*
X129225000Y-79375000D01*
X132645000Y-79695000D02*
X129225000Y-79695000D01*
X132725000Y-79375000D02*
X132645000Y-79695000D01*
X132645000Y-79055000D02*
X132725000Y-79375000D01*
X129225000Y-79055000D02*
X132645000Y-79055000D01*
X129225000Y-79375000D02*
X129225000Y-79055000D01*
X129225000Y-77985000D02*
X129225000Y-83265000D01*
X128225000Y-83265000D02*
X128225000Y-84485000D01*
X133225000Y-83265000D02*
X128225000Y-83265000D01*
X133225000Y-84485000D02*
X133225000Y-83265000D01*
X128225000Y-77985000D02*
X128225000Y-76765000D01*
X133225000Y-77985000D02*
X128225000Y-77985000D01*
X133225000Y-76765000D02*
X133225000Y-77985000D01*
X126025000Y-83265000D02*
X128225000Y-83265000D01*
X126025000Y-84485000D02*
X126025000Y-83265000D01*
X134445000Y-84485000D02*
X126025000Y-84485000D01*
X134445000Y-76765000D02*
X134445000Y-84485000D01*
X126025000Y-76765000D02*
X134445000Y-76765000D01*
X126025000Y-77985000D02*
X126025000Y-76765000D01*
X128225000Y-77985000D02*
X126025000Y-77985000D01*
X99890000Y-81615000D02*
X99290000Y-81915000D01*
X99890000Y-82215000D02*
X99890000Y-81615000D01*
X99290000Y-81915000D02*
X99890000Y-82215000D01*
X96200000Y-79095000D02*
X96200000Y-79415000D01*
X92780000Y-79095000D02*
X96200000Y-79095000D01*
X92700000Y-79415000D02*
X92780000Y-79095000D01*
X92780000Y-79735000D02*
X92700000Y-79415000D01*
X96200000Y-79735000D02*
X92780000Y-79735000D01*
X96200000Y-79415000D02*
X96200000Y-79735000D01*
X97200000Y-80745000D02*
X97200000Y-80585000D01*
X96200000Y-81595000D02*
X96200000Y-81915000D01*
X92780000Y-81595000D02*
X96200000Y-81595000D01*
X92700000Y-81915000D02*
X92780000Y-81595000D01*
X92780000Y-82235000D02*
X92700000Y-81915000D01*
X96200000Y-82235000D02*
X92780000Y-82235000D01*
X96200000Y-81915000D02*
X96200000Y-82235000D01*
X96200000Y-83305000D02*
X96200000Y-78025000D01*
X97200000Y-78025000D02*
X97200000Y-76805000D01*
X92200000Y-78025000D02*
X97200000Y-78025000D01*
X92200000Y-76805000D02*
X92200000Y-78025000D01*
X97200000Y-83305000D02*
X97200000Y-84525000D01*
X92200000Y-83305000D02*
X97200000Y-83305000D01*
X92200000Y-84525000D02*
X92200000Y-83305000D01*
X99400000Y-78025000D02*
X97200000Y-78025000D01*
X99400000Y-76805000D02*
X99400000Y-78025000D01*
X90980000Y-76805000D02*
X99400000Y-76805000D01*
X90980000Y-84525000D02*
X90980000Y-76805000D01*
X99400000Y-84525000D02*
X90980000Y-84525000D01*
X99400000Y-83305000D02*
X99400000Y-84525000D01*
X97200000Y-83305000D02*
X99400000Y-83305000D01*
X116130000Y-83228922D02*
X116130000Y-83746078D01*
X117550000Y-83228922D02*
X117550000Y-83746078D01*
X102795000Y-77513922D02*
X102795000Y-78031078D01*
X104215000Y-77513922D02*
X104215000Y-78031078D01*
D11*
X105442380Y-81406904D02*
X106251904Y-81406904D01*
X106347142Y-81359285D01*
X106394761Y-81311666D01*
X106442380Y-81216428D01*
X106442380Y-81025952D01*
X106394761Y-80930714D01*
X106347142Y-80883095D01*
X106251904Y-80835476D01*
X105442380Y-80835476D01*
X106442380Y-79835476D02*
X106442380Y-80406904D01*
X106442380Y-80121190D02*
X105442380Y-80121190D01*
X105585238Y-80216428D01*
X105680476Y-80311666D01*
X105728095Y-80406904D01*
X124717380Y-79335238D02*
X124241190Y-79668571D01*
X124717380Y-79906666D02*
X123717380Y-79906666D01*
X123717380Y-79525714D01*
X123765000Y-79430476D01*
X123812619Y-79382857D01*
X123907857Y-79335238D01*
X124050714Y-79335238D01*
X124145952Y-79382857D01*
X124193571Y-79430476D01*
X124241190Y-79525714D01*
X124241190Y-79906666D01*
X123717380Y-79049523D02*
X124717380Y-78716190D01*
X123717380Y-78382857D01*
X124717380Y-77525714D02*
X124717380Y-78097142D01*
X124717380Y-77811428D02*
X123717380Y-77811428D01*
X123860238Y-77906666D01*
X123955476Y-78001904D01*
X124003095Y-78097142D01*
X105607380Y-83654166D02*
X105131190Y-83987500D01*
X105607380Y-84225595D02*
X104607380Y-84225595D01*
X104607380Y-83844642D01*
X104655000Y-83749404D01*
X104702619Y-83701785D01*
X104797857Y-83654166D01*
X104940714Y-83654166D01*
X105035952Y-83701785D01*
X105083571Y-83749404D01*
X105131190Y-83844642D01*
X105131190Y-84225595D01*
X105607380Y-82701785D02*
X105607380Y-83273214D01*
X105607380Y-82987500D02*
X104607380Y-82987500D01*
X104750238Y-83082738D01*
X104845476Y-83177976D01*
X104893095Y-83273214D01*
X134987380Y-80958333D02*
X135701666Y-80958333D01*
X135844523Y-81005952D01*
X135939761Y-81101190D01*
X135987380Y-81244047D01*
X135987380Y-81339285D01*
X135082619Y-80529761D02*
X135035000Y-80482142D01*
X134987380Y-80386904D01*
X134987380Y-80148809D01*
X135035000Y-80053571D01*
X135082619Y-80005952D01*
X135177857Y-79958333D01*
X135273095Y-79958333D01*
X135415952Y-80005952D01*
X135987380Y-80577380D01*
X135987380Y-79958333D01*
X89342380Y-80998333D02*
X90056666Y-80998333D01*
X90199523Y-81045952D01*
X90294761Y-81141190D01*
X90342380Y-81284047D01*
X90342380Y-81379285D01*
X90342380Y-79998333D02*
X90342380Y-80569761D01*
X90342380Y-80284047D02*
X89342380Y-80284047D01*
X89485238Y-80379285D01*
X89580476Y-80474523D01*
X89628095Y-80569761D01*
X118847142Y-83654166D02*
X118894761Y-83701785D01*
X118942380Y-83844642D01*
X118942380Y-83939880D01*
X118894761Y-84082738D01*
X118799523Y-84177976D01*
X118704285Y-84225595D01*
X118513809Y-84273214D01*
X118370952Y-84273214D01*
X118180476Y-84225595D01*
X118085238Y-84177976D01*
X117990000Y-84082738D01*
X117942380Y-83939880D01*
X117942380Y-83844642D01*
X117990000Y-83701785D01*
X118037619Y-83654166D01*
X118037619Y-83273214D02*
X117990000Y-83225595D01*
X117942380Y-83130357D01*
X117942380Y-82892261D01*
X117990000Y-82797023D01*
X118037619Y-82749404D01*
X118132857Y-82701785D01*
X118228095Y-82701785D01*
X118370952Y-82749404D01*
X118942380Y-83320833D01*
X118942380Y-82701785D01*
X105512142Y-77939166D02*
X105559761Y-77986785D01*
X105607380Y-78129642D01*
X105607380Y-78224880D01*
X105559761Y-78367738D01*
X105464523Y-78462976D01*
X105369285Y-78510595D01*
X105178809Y-78558214D01*
X105035952Y-78558214D01*
X104845476Y-78510595D01*
X104750238Y-78462976D01*
X104655000Y-78367738D01*
X104607380Y-78224880D01*
X104607380Y-78129642D01*
X104655000Y-77986785D01*
X104702619Y-77939166D01*
X105607380Y-76986785D02*
X105607380Y-77558214D01*
X105607380Y-77272500D02*
X104607380Y-77272500D01*
X104750238Y-77367738D01*
X104845476Y-77462976D01*
X104893095Y-77558214D01*
M02*
