G04 #@! TF.GenerationSoftware,KiCad,Pcbnew,(5.1.5)-3*
G04 #@! TF.CreationDate,2020-06-03T21:28:16+01:00*
G04 #@! TF.ProjectId,LM317 SMD Regulator baord,4c4d3331-3720-4534-9d44-20526567756c,rev?*
G04 #@! TF.SameCoordinates,Original*
G04 #@! TF.FileFunction,Soldermask,Top*
G04 #@! TF.FilePolarity,Negative*
%FSLAX46Y46*%
G04 Gerber Fmt 4.6, Leading zero omitted, Abs format (unit mm)*
G04 Created by KiCad (PCBNEW (5.1.5)-3) date 2020-06-03 21:28:16*
%MOMM*%
%LPD*%
G04 APERTURE LIST*
%ADD10C,0.100000*%
G04 APERTURE END LIST*
D10*
G36*
X117424468Y-83891065D02*
G01*
X117463138Y-83902796D01*
X117498777Y-83921846D01*
X117530017Y-83947483D01*
X117555654Y-83978723D01*
X117574704Y-84014362D01*
X117586435Y-84053032D01*
X117591000Y-84099388D01*
X117591000Y-84750612D01*
X117586435Y-84796968D01*
X117574704Y-84835638D01*
X117555654Y-84871277D01*
X117530017Y-84902517D01*
X117498777Y-84928154D01*
X117463138Y-84947204D01*
X117424468Y-84958935D01*
X117378112Y-84963500D01*
X116301888Y-84963500D01*
X116255532Y-84958935D01*
X116216862Y-84947204D01*
X116181223Y-84928154D01*
X116149983Y-84902517D01*
X116124346Y-84871277D01*
X116105296Y-84835638D01*
X116093565Y-84796968D01*
X116089000Y-84750612D01*
X116089000Y-84099388D01*
X116093565Y-84053032D01*
X116105296Y-84014362D01*
X116124346Y-83978723D01*
X116149983Y-83947483D01*
X116181223Y-83921846D01*
X116216862Y-83902796D01*
X116255532Y-83891065D01*
X116301888Y-83886500D01*
X117378112Y-83886500D01*
X117424468Y-83891065D01*
G37*
G36*
X104089468Y-83891065D02*
G01*
X104128138Y-83902796D01*
X104163777Y-83921846D01*
X104195017Y-83947483D01*
X104220654Y-83978723D01*
X104239704Y-84014362D01*
X104251435Y-84053032D01*
X104256000Y-84099388D01*
X104256000Y-84750612D01*
X104251435Y-84796968D01*
X104239704Y-84835638D01*
X104220654Y-84871277D01*
X104195017Y-84902517D01*
X104163777Y-84928154D01*
X104128138Y-84947204D01*
X104089468Y-84958935D01*
X104043112Y-84963500D01*
X102966888Y-84963500D01*
X102920532Y-84958935D01*
X102881862Y-84947204D01*
X102846223Y-84928154D01*
X102814983Y-84902517D01*
X102789346Y-84871277D01*
X102770296Y-84835638D01*
X102758565Y-84796968D01*
X102754000Y-84750612D01*
X102754000Y-84099388D01*
X102758565Y-84053032D01*
X102770296Y-84014362D01*
X102789346Y-83978723D01*
X102814983Y-83947483D01*
X102846223Y-83921846D01*
X102881862Y-83902796D01*
X102920532Y-83891065D01*
X102966888Y-83886500D01*
X104043112Y-83886500D01*
X104089468Y-83891065D01*
G37*
G36*
X108991000Y-84846000D02*
G01*
X107389000Y-84846000D01*
X107389000Y-82744000D01*
X108991000Y-82744000D01*
X108991000Y-84846000D01*
G37*
G36*
X111291000Y-84846000D02*
G01*
X109689000Y-84846000D01*
X109689000Y-82744000D01*
X111291000Y-82744000D01*
X111291000Y-84846000D01*
G37*
G36*
X113591000Y-84846000D02*
G01*
X111989000Y-84846000D01*
X111989000Y-82744000D01*
X113591000Y-82744000D01*
X113591000Y-84846000D01*
G37*
G36*
X104089468Y-82016065D02*
G01*
X104128138Y-82027796D01*
X104163777Y-82046846D01*
X104195017Y-82072483D01*
X104220654Y-82103723D01*
X104239704Y-82139362D01*
X104251435Y-82178032D01*
X104256000Y-82224388D01*
X104256000Y-82875612D01*
X104251435Y-82921968D01*
X104239704Y-82960638D01*
X104220654Y-82996277D01*
X104195017Y-83027517D01*
X104163777Y-83053154D01*
X104128138Y-83072204D01*
X104089468Y-83083935D01*
X104043112Y-83088500D01*
X102966888Y-83088500D01*
X102920532Y-83083935D01*
X102881862Y-83072204D01*
X102846223Y-83053154D01*
X102814983Y-83027517D01*
X102789346Y-82996277D01*
X102770296Y-82960638D01*
X102758565Y-82921968D01*
X102754000Y-82875612D01*
X102754000Y-82224388D01*
X102758565Y-82178032D01*
X102770296Y-82139362D01*
X102789346Y-82103723D01*
X102814983Y-82072483D01*
X102846223Y-82046846D01*
X102881862Y-82027796D01*
X102920532Y-82016065D01*
X102966888Y-82011500D01*
X104043112Y-82011500D01*
X104089468Y-82016065D01*
G37*
G36*
X117424468Y-82016065D02*
G01*
X117463138Y-82027796D01*
X117498777Y-82046846D01*
X117530017Y-82072483D01*
X117555654Y-82103723D01*
X117574704Y-82139362D01*
X117586435Y-82178032D01*
X117591000Y-82224388D01*
X117591000Y-82875612D01*
X117586435Y-82921968D01*
X117574704Y-82960638D01*
X117555654Y-82996277D01*
X117530017Y-83027517D01*
X117498777Y-83053154D01*
X117463138Y-83072204D01*
X117424468Y-83083935D01*
X117378112Y-83088500D01*
X116301888Y-83088500D01*
X116255532Y-83083935D01*
X116216862Y-83072204D01*
X116181223Y-83053154D01*
X116149983Y-83027517D01*
X116124346Y-82996277D01*
X116105296Y-82960638D01*
X116093565Y-82921968D01*
X116089000Y-82875612D01*
X116089000Y-82224388D01*
X116093565Y-82178032D01*
X116105296Y-82139362D01*
X116124346Y-82103723D01*
X116149983Y-82072483D01*
X116181223Y-82046846D01*
X116216862Y-82027796D01*
X116255532Y-82016065D01*
X116301888Y-82011500D01*
X117378112Y-82011500D01*
X117424468Y-82016065D01*
G37*
G36*
X98698600Y-81017989D02*
G01*
X98731652Y-81028015D01*
X98762103Y-81044292D01*
X98788799Y-81066201D01*
X98810708Y-81092897D01*
X98826985Y-81123348D01*
X98837011Y-81156400D01*
X98841000Y-81196903D01*
X98841000Y-82633097D01*
X98837011Y-82673600D01*
X98826985Y-82706652D01*
X98810708Y-82737103D01*
X98788799Y-82763799D01*
X98762103Y-82785708D01*
X98731652Y-82801985D01*
X98698600Y-82812011D01*
X98658097Y-82816000D01*
X96921903Y-82816000D01*
X96881400Y-82812011D01*
X96848348Y-82801985D01*
X96817897Y-82785708D01*
X96791201Y-82763799D01*
X96769292Y-82737103D01*
X96753015Y-82706652D01*
X96742989Y-82673600D01*
X96739000Y-82633097D01*
X96739000Y-81196903D01*
X96742989Y-81156400D01*
X96753015Y-81123348D01*
X96769292Y-81092897D01*
X96791201Y-81066201D01*
X96817897Y-81044292D01*
X96848348Y-81028015D01*
X96881400Y-81017989D01*
X96921903Y-81014000D01*
X98658097Y-81014000D01*
X98698600Y-81017989D01*
G37*
G36*
X127895442Y-80980518D02*
G01*
X127961627Y-80987037D01*
X128131466Y-81038557D01*
X128287991Y-81122222D01*
X128299630Y-81131774D01*
X128425186Y-81234814D01*
X128508448Y-81336271D01*
X128537778Y-81372009D01*
X128621443Y-81528534D01*
X128672963Y-81698373D01*
X128690359Y-81875000D01*
X128672963Y-82051627D01*
X128621443Y-82221466D01*
X128537778Y-82377991D01*
X128508448Y-82413729D01*
X128425186Y-82515186D01*
X128323729Y-82598448D01*
X128287991Y-82627778D01*
X128131466Y-82711443D01*
X127961627Y-82762963D01*
X127895443Y-82769481D01*
X127829260Y-82776000D01*
X127440740Y-82776000D01*
X127374557Y-82769481D01*
X127308373Y-82762963D01*
X127138534Y-82711443D01*
X126982009Y-82627778D01*
X126946271Y-82598448D01*
X126844814Y-82515186D01*
X126761552Y-82413729D01*
X126732222Y-82377991D01*
X126648557Y-82221466D01*
X126597037Y-82051627D01*
X126579641Y-81875000D01*
X126597037Y-81698373D01*
X126648557Y-81528534D01*
X126732222Y-81372009D01*
X126761552Y-81336271D01*
X126844814Y-81234814D01*
X126970370Y-81131774D01*
X126982009Y-81122222D01*
X127138534Y-81038557D01*
X127308373Y-80987037D01*
X127374558Y-80980518D01*
X127440740Y-80974000D01*
X127829260Y-80974000D01*
X127895442Y-80980518D01*
G37*
G36*
X123066000Y-80591000D02*
G01*
X120964000Y-80591000D01*
X120964000Y-79189000D01*
X123066000Y-79189000D01*
X123066000Y-80591000D01*
G37*
G36*
X98031583Y-78518661D02*
G01*
X98116627Y-78527037D01*
X98286466Y-78578557D01*
X98442991Y-78662222D01*
X98473550Y-78687301D01*
X98580186Y-78774814D01*
X98663448Y-78876271D01*
X98692778Y-78912009D01*
X98776443Y-79068534D01*
X98827963Y-79238373D01*
X98845359Y-79415000D01*
X98827963Y-79591627D01*
X98776443Y-79761466D01*
X98692778Y-79917991D01*
X98663448Y-79953729D01*
X98580186Y-80055186D01*
X98484637Y-80133600D01*
X98442991Y-80167778D01*
X98286466Y-80251443D01*
X98116627Y-80302963D01*
X98050442Y-80309482D01*
X97984260Y-80316000D01*
X97595740Y-80316000D01*
X97529558Y-80309482D01*
X97463373Y-80302963D01*
X97293534Y-80251443D01*
X97137009Y-80167778D01*
X97095363Y-80133600D01*
X96999814Y-80055186D01*
X96916552Y-79953729D01*
X96887222Y-79917991D01*
X96803557Y-79761466D01*
X96752037Y-79591627D01*
X96734641Y-79415000D01*
X96752037Y-79238373D01*
X96803557Y-79068534D01*
X96887222Y-78912009D01*
X96916552Y-78876271D01*
X96999814Y-78774814D01*
X97106450Y-78687301D01*
X97137009Y-78662222D01*
X97293534Y-78578557D01*
X97463373Y-78527037D01*
X97548417Y-78518661D01*
X97595740Y-78514000D01*
X97984260Y-78514000D01*
X98031583Y-78518661D01*
G37*
G36*
X128543600Y-78477989D02*
G01*
X128576652Y-78488015D01*
X128607103Y-78504292D01*
X128633799Y-78526201D01*
X128655708Y-78552897D01*
X128671985Y-78583348D01*
X128682011Y-78616400D01*
X128686000Y-78656903D01*
X128686000Y-80093097D01*
X128682011Y-80133600D01*
X128671985Y-80166652D01*
X128655708Y-80197103D01*
X128633799Y-80223799D01*
X128607103Y-80245708D01*
X128576652Y-80261985D01*
X128543600Y-80272011D01*
X128503097Y-80276000D01*
X126766903Y-80276000D01*
X126726400Y-80272011D01*
X126693348Y-80261985D01*
X126662897Y-80245708D01*
X126636201Y-80223799D01*
X126614292Y-80197103D01*
X126598015Y-80166652D01*
X126587989Y-80133600D01*
X126584000Y-80093097D01*
X126584000Y-78656903D01*
X126587989Y-78616400D01*
X126598015Y-78583348D01*
X126614292Y-78552897D01*
X126636201Y-78526201D01*
X126662897Y-78504292D01*
X126693348Y-78488015D01*
X126726400Y-78477989D01*
X126766903Y-78474000D01*
X128503097Y-78474000D01*
X128543600Y-78477989D01*
G37*
G36*
X119066000Y-79791000D02*
G01*
X116964000Y-79791000D01*
X116964000Y-77689000D01*
X119066000Y-77689000D01*
X119066000Y-79791000D01*
G37*
G36*
X104089468Y-78176065D02*
G01*
X104128138Y-78187796D01*
X104163777Y-78206846D01*
X104195017Y-78232483D01*
X104220654Y-78263723D01*
X104239704Y-78299362D01*
X104251435Y-78338032D01*
X104256000Y-78384388D01*
X104256000Y-79035612D01*
X104251435Y-79081968D01*
X104239704Y-79120638D01*
X104220654Y-79156277D01*
X104195017Y-79187517D01*
X104163777Y-79213154D01*
X104128138Y-79232204D01*
X104089468Y-79243935D01*
X104043112Y-79248500D01*
X102966888Y-79248500D01*
X102920532Y-79243935D01*
X102881862Y-79232204D01*
X102846223Y-79213154D01*
X102814983Y-79187517D01*
X102789346Y-79156277D01*
X102770296Y-79120638D01*
X102758565Y-79081968D01*
X102754000Y-79035612D01*
X102754000Y-78384388D01*
X102758565Y-78338032D01*
X102770296Y-78299362D01*
X102789346Y-78263723D01*
X102814983Y-78232483D01*
X102846223Y-78206846D01*
X102881862Y-78187796D01*
X102920532Y-78176065D01*
X102966888Y-78171500D01*
X104043112Y-78171500D01*
X104089468Y-78176065D01*
G37*
G36*
X112441000Y-78546000D02*
G01*
X108539000Y-78546000D01*
X108539000Y-76444000D01*
X112441000Y-76444000D01*
X112441000Y-78546000D01*
G37*
G36*
X123066000Y-78291000D02*
G01*
X120964000Y-78291000D01*
X120964000Y-76889000D01*
X123066000Y-76889000D01*
X123066000Y-78291000D01*
G37*
G36*
X104089468Y-76301065D02*
G01*
X104128138Y-76312796D01*
X104163777Y-76331846D01*
X104195017Y-76357483D01*
X104220654Y-76388723D01*
X104239704Y-76424362D01*
X104251435Y-76463032D01*
X104256000Y-76509388D01*
X104256000Y-77160612D01*
X104251435Y-77206968D01*
X104239704Y-77245638D01*
X104220654Y-77281277D01*
X104195017Y-77312517D01*
X104163777Y-77338154D01*
X104128138Y-77357204D01*
X104089468Y-77368935D01*
X104043112Y-77373500D01*
X102966888Y-77373500D01*
X102920532Y-77368935D01*
X102881862Y-77357204D01*
X102846223Y-77338154D01*
X102814983Y-77312517D01*
X102789346Y-77281277D01*
X102770296Y-77245638D01*
X102758565Y-77206968D01*
X102754000Y-77160612D01*
X102754000Y-76509388D01*
X102758565Y-76463032D01*
X102770296Y-76424362D01*
X102789346Y-76388723D01*
X102814983Y-76357483D01*
X102846223Y-76331846D01*
X102881862Y-76312796D01*
X102920532Y-76301065D01*
X102966888Y-76296500D01*
X104043112Y-76296500D01*
X104089468Y-76301065D01*
G37*
M02*
