G04 #@! TF.GenerationSoftware,KiCad,Pcbnew,(5.1.5)-3*
G04 #@! TF.CreationDate,2020-06-03T21:28:13+01:00*
G04 #@! TF.ProjectId,LM317 SMD Regulator baord,4c4d3331-3720-4534-9d44-20526567756c,rev?*
G04 #@! TF.SameCoordinates,Original*
G04 #@! TF.FileFunction,Copper,L2,Bot*
G04 #@! TF.FilePolarity,Positive*
%FSLAX46Y46*%
G04 Gerber Fmt 4.6, Leading zero omitted, Abs format (unit mm)*
G04 Created by KiCad (PCBNEW (5.1.5)-3) date 2020-06-03 21:28:13*
%MOMM*%
%LPD*%
G04 APERTURE LIST*
%ADD10O,2.000000X1.700000*%
%ADD11C,0.100000*%
%ADD12C,0.800000*%
%ADD13C,0.250000*%
G04 APERTURE END LIST*
D10*
X127635000Y-81875000D03*
G04 #@! TA.AperFunction,ComponentPad*
D11*
G36*
X128409504Y-78526204D02*
G01*
X128433773Y-78529804D01*
X128457571Y-78535765D01*
X128480671Y-78544030D01*
X128502849Y-78554520D01*
X128523893Y-78567133D01*
X128543598Y-78581747D01*
X128561777Y-78598223D01*
X128578253Y-78616402D01*
X128592867Y-78636107D01*
X128605480Y-78657151D01*
X128615970Y-78679329D01*
X128624235Y-78702429D01*
X128630196Y-78726227D01*
X128633796Y-78750496D01*
X128635000Y-78775000D01*
X128635000Y-79975000D01*
X128633796Y-79999504D01*
X128630196Y-80023773D01*
X128624235Y-80047571D01*
X128615970Y-80070671D01*
X128605480Y-80092849D01*
X128592867Y-80113893D01*
X128578253Y-80133598D01*
X128561777Y-80151777D01*
X128543598Y-80168253D01*
X128523893Y-80182867D01*
X128502849Y-80195480D01*
X128480671Y-80205970D01*
X128457571Y-80214235D01*
X128433773Y-80220196D01*
X128409504Y-80223796D01*
X128385000Y-80225000D01*
X126885000Y-80225000D01*
X126860496Y-80223796D01*
X126836227Y-80220196D01*
X126812429Y-80214235D01*
X126789329Y-80205970D01*
X126767151Y-80195480D01*
X126746107Y-80182867D01*
X126726402Y-80168253D01*
X126708223Y-80151777D01*
X126691747Y-80133598D01*
X126677133Y-80113893D01*
X126664520Y-80092849D01*
X126654030Y-80070671D01*
X126645765Y-80047571D01*
X126639804Y-80023773D01*
X126636204Y-79999504D01*
X126635000Y-79975000D01*
X126635000Y-78775000D01*
X126636204Y-78750496D01*
X126639804Y-78726227D01*
X126645765Y-78702429D01*
X126654030Y-78679329D01*
X126664520Y-78657151D01*
X126677133Y-78636107D01*
X126691747Y-78616402D01*
X126708223Y-78598223D01*
X126726402Y-78581747D01*
X126746107Y-78567133D01*
X126767151Y-78554520D01*
X126789329Y-78544030D01*
X126812429Y-78535765D01*
X126836227Y-78529804D01*
X126860496Y-78526204D01*
X126885000Y-78525000D01*
X128385000Y-78525000D01*
X128409504Y-78526204D01*
G37*
G04 #@! TD.AperFunction*
D10*
X97790000Y-79415000D03*
G04 #@! TA.AperFunction,ComponentPad*
D11*
G36*
X98564504Y-81066204D02*
G01*
X98588773Y-81069804D01*
X98612571Y-81075765D01*
X98635671Y-81084030D01*
X98657849Y-81094520D01*
X98678893Y-81107133D01*
X98698598Y-81121747D01*
X98716777Y-81138223D01*
X98733253Y-81156402D01*
X98747867Y-81176107D01*
X98760480Y-81197151D01*
X98770970Y-81219329D01*
X98779235Y-81242429D01*
X98785196Y-81266227D01*
X98788796Y-81290496D01*
X98790000Y-81315000D01*
X98790000Y-82515000D01*
X98788796Y-82539504D01*
X98785196Y-82563773D01*
X98779235Y-82587571D01*
X98770970Y-82610671D01*
X98760480Y-82632849D01*
X98747867Y-82653893D01*
X98733253Y-82673598D01*
X98716777Y-82691777D01*
X98698598Y-82708253D01*
X98678893Y-82722867D01*
X98657849Y-82735480D01*
X98635671Y-82745970D01*
X98612571Y-82754235D01*
X98588773Y-82760196D01*
X98564504Y-82763796D01*
X98540000Y-82765000D01*
X97040000Y-82765000D01*
X97015496Y-82763796D01*
X96991227Y-82760196D01*
X96967429Y-82754235D01*
X96944329Y-82745970D01*
X96922151Y-82735480D01*
X96901107Y-82722867D01*
X96881402Y-82708253D01*
X96863223Y-82691777D01*
X96846747Y-82673598D01*
X96832133Y-82653893D01*
X96819520Y-82632849D01*
X96809030Y-82610671D01*
X96800765Y-82587571D01*
X96794804Y-82563773D01*
X96791204Y-82539504D01*
X96790000Y-82515000D01*
X96790000Y-81315000D01*
X96791204Y-81290496D01*
X96794804Y-81266227D01*
X96800765Y-81242429D01*
X96809030Y-81219329D01*
X96819520Y-81197151D01*
X96832133Y-81176107D01*
X96846747Y-81156402D01*
X96863223Y-81138223D01*
X96881402Y-81121747D01*
X96901107Y-81107133D01*
X96922151Y-81094520D01*
X96944329Y-81084030D01*
X96967429Y-81075765D01*
X96991227Y-81069804D01*
X97015496Y-81066204D01*
X97040000Y-81065000D01*
X98540000Y-81065000D01*
X98564504Y-81066204D01*
G37*
G04 #@! TD.AperFunction*
D12*
X112395000Y-81280000D03*
X106045000Y-80010000D03*
X113102108Y-82005000D03*
X105410000Y-76835000D03*
X106045000Y-81915000D03*
X111687892Y-82005000D03*
D13*
X112395000Y-81280000D02*
X107315000Y-81280000D01*
X107315000Y-81280000D02*
X106045000Y-80010000D01*
X113502107Y-81314105D02*
X112198002Y-80010000D01*
X113102108Y-82005000D02*
X113502107Y-81605001D01*
X113502107Y-81605001D02*
X113502107Y-81314105D01*
X112198002Y-80010000D02*
X107950000Y-80010000D01*
X107950000Y-80010000D02*
X105410000Y-77470000D01*
X105410000Y-77470000D02*
X105410000Y-76835000D01*
X106045000Y-81915000D02*
X111597892Y-81915000D01*
X111597892Y-81915000D02*
X111687892Y-82005000D01*
M02*
