G04 #@! TF.GenerationSoftware,KiCad,Pcbnew,(5.1.5)-3*
G04 #@! TF.CreationDate,2020-06-03T21:28:16+01:00*
G04 #@! TF.ProjectId,LM317 SMD Regulator baord,4c4d3331-3720-4534-9d44-20526567756c,rev?*
G04 #@! TF.SameCoordinates,Original*
G04 #@! TF.FileFunction,Soldermask,Bot*
G04 #@! TF.FilePolarity,Negative*
%FSLAX46Y46*%
G04 Gerber Fmt 4.6, Leading zero omitted, Abs format (unit mm)*
G04 Created by KiCad (PCBNEW (5.1.5)-3) date 2020-06-03 21:28:16*
%MOMM*%
%LPD*%
G04 APERTURE LIST*
%ADD10C,0.100000*%
G04 APERTURE END LIST*
D10*
G36*
X98698600Y-81017989D02*
G01*
X98731652Y-81028015D01*
X98762103Y-81044292D01*
X98788799Y-81066201D01*
X98810708Y-81092897D01*
X98826985Y-81123348D01*
X98837011Y-81156400D01*
X98841000Y-81196903D01*
X98841000Y-82633097D01*
X98837011Y-82673600D01*
X98826985Y-82706652D01*
X98810708Y-82737103D01*
X98788799Y-82763799D01*
X98762103Y-82785708D01*
X98731652Y-82801985D01*
X98698600Y-82812011D01*
X98658097Y-82816000D01*
X96921903Y-82816000D01*
X96881400Y-82812011D01*
X96848348Y-82801985D01*
X96817897Y-82785708D01*
X96791201Y-82763799D01*
X96769292Y-82737103D01*
X96753015Y-82706652D01*
X96742989Y-82673600D01*
X96739000Y-82633097D01*
X96739000Y-81196903D01*
X96742989Y-81156400D01*
X96753015Y-81123348D01*
X96769292Y-81092897D01*
X96791201Y-81066201D01*
X96817897Y-81044292D01*
X96848348Y-81028015D01*
X96881400Y-81017989D01*
X96921903Y-81014000D01*
X98658097Y-81014000D01*
X98698600Y-81017989D01*
G37*
G36*
X127895442Y-80980518D02*
G01*
X127961627Y-80987037D01*
X128131466Y-81038557D01*
X128287991Y-81122222D01*
X128299630Y-81131774D01*
X128425186Y-81234814D01*
X128508448Y-81336271D01*
X128537778Y-81372009D01*
X128621443Y-81528534D01*
X128672963Y-81698373D01*
X128690359Y-81875000D01*
X128672963Y-82051627D01*
X128621443Y-82221466D01*
X128537778Y-82377991D01*
X128508448Y-82413729D01*
X128425186Y-82515186D01*
X128323729Y-82598448D01*
X128287991Y-82627778D01*
X128131466Y-82711443D01*
X127961627Y-82762963D01*
X127895443Y-82769481D01*
X127829260Y-82776000D01*
X127440740Y-82776000D01*
X127374557Y-82769481D01*
X127308373Y-82762963D01*
X127138534Y-82711443D01*
X126982009Y-82627778D01*
X126946271Y-82598448D01*
X126844814Y-82515186D01*
X126761552Y-82413729D01*
X126732222Y-82377991D01*
X126648557Y-82221466D01*
X126597037Y-82051627D01*
X126579641Y-81875000D01*
X126597037Y-81698373D01*
X126648557Y-81528534D01*
X126732222Y-81372009D01*
X126761552Y-81336271D01*
X126844814Y-81234814D01*
X126970370Y-81131774D01*
X126982009Y-81122222D01*
X127138534Y-81038557D01*
X127308373Y-80987037D01*
X127374558Y-80980518D01*
X127440740Y-80974000D01*
X127829260Y-80974000D01*
X127895442Y-80980518D01*
G37*
G36*
X98031583Y-78518661D02*
G01*
X98116627Y-78527037D01*
X98286466Y-78578557D01*
X98442991Y-78662222D01*
X98473550Y-78687301D01*
X98580186Y-78774814D01*
X98663448Y-78876271D01*
X98692778Y-78912009D01*
X98776443Y-79068534D01*
X98827963Y-79238373D01*
X98845359Y-79415000D01*
X98827963Y-79591627D01*
X98776443Y-79761466D01*
X98692778Y-79917991D01*
X98663448Y-79953729D01*
X98580186Y-80055186D01*
X98484637Y-80133600D01*
X98442991Y-80167778D01*
X98286466Y-80251443D01*
X98116627Y-80302963D01*
X98050442Y-80309482D01*
X97984260Y-80316000D01*
X97595740Y-80316000D01*
X97529558Y-80309482D01*
X97463373Y-80302963D01*
X97293534Y-80251443D01*
X97137009Y-80167778D01*
X97095363Y-80133600D01*
X96999814Y-80055186D01*
X96916552Y-79953729D01*
X96887222Y-79917991D01*
X96803557Y-79761466D01*
X96752037Y-79591627D01*
X96734641Y-79415000D01*
X96752037Y-79238373D01*
X96803557Y-79068534D01*
X96887222Y-78912009D01*
X96916552Y-78876271D01*
X96999814Y-78774814D01*
X97106450Y-78687301D01*
X97137009Y-78662222D01*
X97293534Y-78578557D01*
X97463373Y-78527037D01*
X97548417Y-78518661D01*
X97595740Y-78514000D01*
X97984260Y-78514000D01*
X98031583Y-78518661D01*
G37*
G36*
X128543600Y-78477989D02*
G01*
X128576652Y-78488015D01*
X128607103Y-78504292D01*
X128633799Y-78526201D01*
X128655708Y-78552897D01*
X128671985Y-78583348D01*
X128682011Y-78616400D01*
X128686000Y-78656903D01*
X128686000Y-80093097D01*
X128682011Y-80133600D01*
X128671985Y-80166652D01*
X128655708Y-80197103D01*
X128633799Y-80223799D01*
X128607103Y-80245708D01*
X128576652Y-80261985D01*
X128543600Y-80272011D01*
X128503097Y-80276000D01*
X126766903Y-80276000D01*
X126726400Y-80272011D01*
X126693348Y-80261985D01*
X126662897Y-80245708D01*
X126636201Y-80223799D01*
X126614292Y-80197103D01*
X126598015Y-80166652D01*
X126587989Y-80133600D01*
X126584000Y-80093097D01*
X126584000Y-78656903D01*
X126587989Y-78616400D01*
X126598015Y-78583348D01*
X126614292Y-78552897D01*
X126636201Y-78526201D01*
X126662897Y-78504292D01*
X126693348Y-78488015D01*
X126726400Y-78477989D01*
X126766903Y-78474000D01*
X128503097Y-78474000D01*
X128543600Y-78477989D01*
G37*
M02*
